<svg width="789" height="400" xmlns="http://www.w3.org/2000/svg"><path d="M394.4.252C176.723.252.245 89.684.245 200c0 110.316 176.478 199.748 394.155 199.748 217.677 0 394.155-89.432 394.155-199.748C788.555 89.684 612.077.252 394.4.252zM291.839 238.916c-9.407 8.8-19.852 12.432-31.355 16.174-11.503 3.749-26.142 2.975-43.942 2.975H176.2l-11.18 64.516h-47.104l42.032-219.355h90.581c27.252 0 47.13 7.839 59.626 22.142 12.497 14.303 16.251 34.606 11.27 60.238-2.057 10.562-5.522 20.381-10.412 29.13-4.897 8.754-11.29 16.929-19.174 24.18zm137.49 19.149l18.587-93.033c2.116-10.89 1.342-18.98-2.329-22.935-3.677-3.962-11.497-6.613-23.452-6.613h-37.354l-24.071 122.58h-46.736l42.032-212.903h46.736l-11.174 58.065H433.2c26.2 0 44.265 5.258 54.206 14.393 9.942 9.136 12.923 21.652 8.949 42.116l-19.555 98.33h-47.471zm259.736-72.117c-2.052 10.562-5.523 20.213-10.407 28.955-4.89 8.755-11.277 16.762-19.168 24.013-9.406 8.8-19.858 12.432-31.355 16.174-11.496 3.749-26.148 2.975-43.948 2.975h-40.342l-11.174 64.516h-47.103l42.026-219.355h90.587c27.251 0 47.129 7.839 59.619 22.142 12.484 14.303 16.245 34.955 11.265 60.58zm-88.736-50.464h-32.264l-17.594 90.322h28.658c18.98 0 33.136-1.87 42.426-9.032 9.303-7.148 15.568-18.245 18.826-34.974 3.122-16.071 1.703-28.606-4.258-35.213-5.968-6.606-17.897-11.103-35.794-11.103zm-367.645 0h-32.271l-17.594 90.322h28.652c18.987 0 33.135-1.87 42.432-9.032 9.297-7.148 15.568-18.245 18.82-34.974 3.122-16.071 1.703-28.606-4.258-35.213-5.962-6.606-17.884-11.103-35.781-11.103z" fill="#6181B6" fill-rule="nonzero"/></svg>